<svg xmlns="http://www.w3.org/2000/svg"
aria-label="OpenBenches" role="img"
viewBox="0 0 512 512"<circle cx="254.6" cy="256.9" r="247.5" fill="#11b0a3"/><circle cx="364.2" cy="174.8" r="68" fill="#007200"/><path d="M98.3 221.6h163v47.6h-163z" fill="#fff"/><path d="M22.8 324.9h466.4C452.5 479.6 346.6 494 264 507.6 148.8 489.7 58.6 440.9 22.8 324.9z" fill="#8c5015" stroke="#000" stroke-width=".6"/><path d="M399.2 312c.1-14.8 41.9 2 95.6-77.4a89.5 89.5 0 0 1-2.2 77.4z" fill="#007200" stroke="teal" stroke-width=".6"/><path d="M491.9 156.4A255.2 255.2 0 0 0 437 75 255.1 255.1 0 0 0 256 0 254.4 254.4 0 0 0 75 75 255.1 255.1 0 0 0 0 256a254.4 254.4 0 0 0 75 181 255.1 255.1 0 0 0 181 75 254.4 254.4 0 0 0 181-75 255.1 255.1 0 0 0 75-181c0-34.6-6.8-68-20.1-99.6zM19.4 312A243.4 243.4 0 0 1 256 12.8a243.5 243.5 0 0 1 242 219.8 44.3 44.3 0 0 0-36.2 37 45.4 45.4 0 0 0-34.4 23.7 31.2 31.2 0 0 0-42.3 18.7H372v-67.7a70.8 70.8 0 0 0-7.8-140.9 70.7 70.7 0 0 0-5 141.2V312H253.7v-30H300v-12.8h-25.9v-60.4H85.4v60.4H65V282h41v30zm412.2 0h-32.4a18.2 18.2 0 0 1 27-4.3zM359 207.6v24a57.9 57.9 0 1 1 12.9-.2v-18.7l36-36-9.1-9-27 26.9v-24.4H359v19.2l-23.7-23.7-9.1 9zM98.2 269.2v-47.6h163v47.6zM240.9 282v30h-122v-30zM256 499.2c-26.4 0-51.8-4.3-75.6-12l258.4-71c-44.6 50.8-110 83-182.8 83zM452.5 399L160 479.4c-7.3-3.2-14.4-6.7-21.4-10.5l171.2-49.7-3.6-12.3-182.6 53a244.6 244.6 0 0 1-24.4-18.2l84.4-15.9-2.3-12.6-94 17.7c-8.3-8-16-16.5-23-25.5l408-38.4c-5.8 11.2-12.4 22-19.8 32zm26.2-45.5L55.5 393.3a242.3 242.3 0 0 1-32.7-68.4h466.4c-2.9 9.8-6.4 19.3-10.5 28.6zM434.1 312l2.4-7.3a32.7 32.7 0 0 1 31-22.7h6.5l.1-6.2c.4-15 10.8-27.2 24.8-30.3a246.8 246.8 0 0 1-6.3 66.5z"/><path d="M155.2 111.2l12-4.5c0-.2-6.1-23.4 11-32.4l-6-11.4a35.6 35.6 0 0 0-18.6 28.7 61 61 0 0 0-31.7-6.3l1.1 12.8c.3 0 25.3-1.7 32.2 13zm43 37.7l11.6 5.4c.5-.9 12.4-20.9 30.7-15.2l3.8-12.3c-13.5-4.2-25 .5-33.4 7.1a61 61 0 0 0-18-26.8l-8.2 9.8c.2.2 19 16.7 13.5 32z"/><path d="M122 240.9h113.8v12.9H121.9z" fill="#ffba00"/></svg>