<svg xmlns="http://www.w3.org/2000/svg"
aria-label="QR" role="img"
viewBox="0 0 512 512"><rect
width="512" height="512"
rx="15%"
fill="#fff"/><path d="M81 81h16.7v16.7H81zm16.7 0h16.6v16.7H97.7zm16.6 0H131v16.7h-16.7zm16.7 0h16.7v16.7H131zm16.7 0h16.6v16.7h-16.6zm16.6 0H181v16.7h-16.7zm16.7 0h16.7v16.7H181zm133.3 0H331v16.7h-16.7zm16.7 0h16.7v16.7H331zm16.7 0h16.6v16.7h-16.6zm16.6 0H381v16.7h-16.7zm16.7 0h16.7v16.7H381zm16.7 0h16.6v16.7h-16.6zm16.6 0H431v16.7h-16.7zM81 97.7h16.7v16.6H81zm100 0h16.7v16.6H181zm33.3 0H231v16.6h-16.7zm50 0H281v16.6h-16.7zm16.7 0h16.7v16.6H281zm33.3 0H331v16.6h-16.7zm100 0H431v16.6h-16.7zM81 114.3h16.7V131H81zm33.3 0H131V131h-16.7zm16.7 0h16.7V131H131zm16.7 0h16.6V131h-16.6zm33.3 0h16.7V131H181zm100 0h16.7V131H281zm33.3 0H331V131h-16.7zm33.4 0h16.6V131h-16.6zm16.6 0H381V131h-16.7zm16.7 0h16.7V131H381zm33.3 0H431V131h-16.7zM81 131h16.7v16.7H81zm33.3 0H131v16.7h-16.7zm16.7 0h16.7v16.7H131zm16.7 0h16.6v16.7h-16.6zm33.3 0h16.7v16.7H181zm33.3 0H231v16.7h-16.7zm16.7 0h16.7v16.7H231zm16.7 0h16.6v16.7h-16.6zm16.6 0H281v16.7h-16.7zm16.7 0h16.7v16.7H281zm33.3 0H331v16.7h-16.7zm33.4 0h16.6v16.7h-16.6zm16.6 0H381v16.7h-16.7zm16.7 0h16.7v16.7H381zm33.3 0H431v16.7h-16.7zM81 147.7h16.7v16.6H81zm33.3 0H131v16.6h-16.7zm16.7 0h16.7v16.6H131zm16.7 0h16.6v16.6h-16.6zm33.3 0h16.7v16.6H181zm66.7 0h16.6v16.6h-16.6zm16.6 0H281v16.6h-16.7zm50 0H331v16.6h-16.7zm33.4 0h16.6v16.6h-16.6zm16.6 0H381v16.6h-16.7zm16.7 0h16.7v16.6H381zm33.3 0H431v16.6h-16.7zM81 164.3h16.7V181H81zm100 0h16.7V181H181zm33.3 0H231V181h-16.7zm16.7 0h16.7V181H231zm33.3 0H281V181h-16.7zm16.7 0h16.7V181H281zm33.3 0H331V181h-16.7zm100 0H431V181h-16.7zM81 181h16.7v16.7H81zm16.7 0h16.6v16.7H97.7zm16.6 0H131v16.7h-16.7zm16.7 0h16.7v16.7H131zm16.7 0h16.6v16.7h-16.6zm16.6 0H181v16.7h-16.7zm16.7 0h16.7v16.7H181zm33.3 0H231v16.7h-16.7zm33.4 0h16.6v16.7h-16.6zm33.3 0h16.7v16.7H281zm33.3 0H331v16.7h-16.7zm16.7 0h16.7v16.7H331zm16.7 0h16.6v16.7h-16.6zm16.6 0H381v16.7h-16.7zm16.7 0h16.7v16.7H381zm16.7 0h16.6v16.7h-16.6zm16.6 0H431v16.7h-16.7zM231 197.7h16.7v16.6H231zM81 214.3h16.7V231H81zm16.7 0h16.6V231H97.7zm16.6 0H131V231h-16.7zm16.7 0h16.7V231H131zm16.7 0h16.6V231h-16.6zm33.3 0h16.7V231H181zm16.7 0h16.6V231h-16.6zm16.6 0H231V231h-16.7zm16.7 0h16.7V231H231zm33.3 0H281V231h-16.7zm33.4 0h16.6V231h-16.6zm33.3 0h16.7V231H331zm33.3 0H381V231h-16.7zm33.4 0h16.6V231h-16.6zM97.7 231h16.6v16.7H97.7zm16.6 0H131v16.7h-16.7zm16.7 0h16.7v16.7H131zm16.7 0h16.6v16.7h-16.6zm66.6 0H231v16.7h-16.7zm83.4 0h16.6v16.7h-16.6zm16.6 0H331v16.7h-16.7zm16.7 0h16.7v16.7H331zm16.7 0h16.6v16.7h-16.6zm16.6 0H381v16.7h-16.7zm16.7 0h16.7v16.7H381zm16.7 0h16.6v16.7h-16.6zm16.6 0H431v16.7h-16.7zM81 247.7h16.7v16.6H81zm16.7 0h16.6v16.6H97.7zm33.3 0h16.7v16.6H131zm33.3 0H181v16.6h-16.7zm16.7 0h16.7v16.6H181zm33.3 0H231v16.6h-16.7zm33.4 0h16.6v16.6h-16.6zm33.3 0h16.7v16.6H281zm16.7 0h16.6v16.6h-16.6zm16.6 0H331v16.6h-16.7zm16.7 0h16.7v16.6H331zm50 0h16.7v16.6H381zm16.7 0h16.6v16.6h-16.6zM131 264.3h16.7V281H131zm33.3 0H181V281h-16.7zm50 0H231V281h-16.7zm66.7 0h16.7V281H281zm16.7 0h16.6V281h-16.6zm50 0h16.6V281h-16.6zm16.6 0H381V281h-16.7zm16.7 0h16.7V281H381zM81 281h16.7v16.7H81zm50 0h16.7v16.7H131zm16.7 0h16.6v16.7h-16.6zm16.6 0H181v16.7h-16.7zm16.7 0h16.7v16.7H181zm16.7 0h16.6v16.7h-16.6zm16.6 0H231v16.7h-16.7zm16.7 0h16.7v16.7H231zm33.3 0H281v16.7h-16.7zm16.7 0h16.7v16.7H281zm33.3 0H331v16.7h-16.7zm33.4 0h16.6v16.7h-16.6zm16.6 0H381v16.7h-16.7zm50 0H431v16.7h-16.7zm-200 16.7H231v16.6h-16.7zm33.4 0h16.6v16.6h-16.6zm16.6 0H281v16.6h-16.7zm33.4 0h16.6v16.6h-16.6zm33.3 0h16.7v16.6H331zm16.7 0h16.6v16.6h-16.6zm16.6 0H381v16.6h-16.7zm16.7 0h16.7v16.6H381zm33.3 0H431v16.6h-16.7zM81 314.3h16.7V331H81zm16.7 0h16.6V331H97.7zm16.6 0H131V331h-16.7zm16.7 0h16.7V331H131zm16.7 0h16.6V331h-16.6zm16.6 0H181V331h-16.7zm16.7 0h16.7V331H181zm33.3 0H231V331h-16.7zm16.7 0h16.7V331H231zm33.3 0H281V331h-16.7zm16.7 0h16.7V331H281zm16.7 0h16.6V331h-16.6zm33.3 0h16.7V331H331zm50 0h16.7V331H381zm16.7 0h16.6V331h-16.6zM81 331h16.7v16.7H81zm100 0h16.7v16.7H181zm116.7 0h16.6v16.7h-16.6zm33.3 0h16.7v16.7H331zm16.7 0h16.6v16.7h-16.6zm16.6 0H381v16.7h-16.7zm16.7 0h16.7v16.7H381zm16.7 0h16.6v16.7h-16.6zM81 347.7h16.7v16.6H81zm33.3 0H131v16.6h-16.7zm16.7 0h16.7v16.6H131zm16.7 0h16.6v16.6h-16.6zm33.3 0h16.7v16.6H181zm33.3 0H231v16.6h-16.7zm16.7 0h16.7v16.6H231zm16.7 0h16.6v16.6h-16.6zm16.6 0H281v16.6h-16.7zm50 0H331v16.6h-16.7zm16.7 0h16.7v16.6H331zm16.7 0h16.6v16.6h-16.6zm16.6 0H381v16.6h-16.7zM81 364.3h16.7V381H81zm33.3 0H131V381h-16.7zm16.7 0h16.7V381H131zm16.7 0h16.6V381h-16.6zm33.3 0h16.7V381H181zm33.3 0H231V381h-16.7zm83.4 0h16.6V381h-16.6zm50 0h16.6V381h-16.6zm33.3 0h16.7V381H381zm16.7 0h16.6V381h-16.6zM81 381h16.7v16.7H81zm33.3 0H131v16.7h-16.7zm16.7 0h16.7v16.7H131zm16.7 0h16.6v16.7h-16.6zm33.3 0h16.7v16.7H181zm33.3 0H231v16.7h-16.7zm16.7 0h16.7v16.7H231zm33.3 0H281v16.7h-16.7zm16.7 0h16.7v16.7H281zm50 0h16.7v16.7H331zm50 0h16.7v16.7H381zM81 397.7h16.7v16.6H81zm100 0h16.7v16.6H181zm33.3 0H231v16.6h-16.7zm16.7 0h16.7v16.6H231zm33.3 0H281v16.6h-16.7zm16.7 0h16.7v16.6H281zm16.7 0h16.6v16.6h-16.6zm50 0h16.6v16.6h-16.6zm16.6 0H381v16.6h-16.7zm16.7 0h16.7v16.6H381zM81 414.3h16.7V431H81zm16.7 0h16.6V431H97.7zm16.6 0H131V431h-16.7zm16.7 0h16.7V431H131zm16.7 0h16.6V431h-16.6zm16.6 0H181V431h-16.7zm16.7 0h16.7V431H181zm33.3 0H231V431h-16.7zm16.7 0h16.7V431H231zm33.3 0H281V431h-16.7zm16.7 0h16.7V431H281zm33.3 0H331V431h-16.7zm16.7 0h16.7V431H331zm33.3 0H381V431h-16.7zm33.4 0h16.6V431h-16.6z"/></svg>