<svg xmlns="http://www.w3.org/2000/svg"
aria-label="SIP" role="img"
viewBox="0 0 512 512"><rect
width="512" height="512"
rx="15%"
fill="#eade52"/><path d="M320.9 142.5h24.2v120.8h-24.2zM296.8 166.7v-24.2h-72.5V215h48.3V239h-48.3v24.2h72.5v-72.5h-48.4v-24.1zM369.2 142.5v120.8h24.2V215h48.3v-72.5zm48.4 48.3h-24.2v-24.1h24.2z"/><path d="M388.4 328c-22 0-43.2-3.6-63.1-10-6.1-2-13-.6-18 4.2l-38.8 39A267 267 0 01152 244.8l38.9-39a17.7 17.7 0 004.3-17.9c-6.5-19.8-10-41.1-10-63.1 0-9.8-8-17.7-17.7-17.7h-61.9c-9.8 0-17.6 7.9-17.6 17.7 0 165.9 134.4 300.4 300.4 300.4 9.8 0 17.6-7.9 17.6-17.7v-61.8c0-9.9-7.8-17.7-17.6-17.7z"/></svg>
